#N canvas 0 22 450 300 10;
#X declare -lib mrpeach;
#X obj 201 31 import mrpeach;
#X obj 147 64 udpreceive 9000;
#X obj 99 89 unpackOSC;
#X obj 42 168 print from-osc;
#X obj 233 258 mtof;
#X obj 319 277 dac~;
#X obj 302 214 osc~;
#X obj 328 246 *~ 0.5;
#X obj 357 194 0;
#X obj 400 142 bng 15 250 50 0 empty empty empty 17 7 0 10 -262144
-1 -1;
#X obj 187 213 print route2;
#X obj 141 165 print route;
#X obj 178 120 routeOSC /muscovaudio;
#X obj 244 169 routeOSC /play /stop;
#X connect 1 0 2 0;
#X connect 2 0 3 0;
#X connect 2 0 12 0;
#X connect 6 0 7 0;
#X connect 7 0 5 0;
#X connect 7 0 5 1;
#X connect 8 0 6 0;
#X connect 9 0 8 0;
#X connect 12 0 11 0;
#X connect 12 0 13 0;
#X connect 13 0 6 0;
#X connect 13 0 10 0;
#X connect 13 1 8 0;
