#N canvas 62 29 1267 514 10;
#X declare -lib mrpeach;
#X obj -65 277 import mrpeach;
#X obj -66 -16 unpackOSC;
#X obj -67 9 routeOSC /muscovaudio;
#X obj -67 91 routeOSC /x /y /leftbutton /rightbutton;
#X msg 192 172 \; pd dsp 0;
#X msg 122 172 \; pd dsp 1;
#X obj -10 166 s y_coordinate;
#X obj -66 -41 udpreceive 9001;
#X obj -67 189 s x_coordinate;
#N canvas 518 55 692 375 drawing_feedback 0;
#X obj -146 12 bng 15 250 50 0 empty empty empty 17 7 0 10 -4032 -1
-1;
#X obj -240 11 r y_coordinate;
#X obj 197 40 r x_coordinate;
#X floatatom 197 95 5 0 0 0 - - -;
#X obj -251 -56 cnv 15 300 30 empty empty DRAW_LINE_SOUND_FEEDBACK
20 12 0 14 -4032 -66577 0;
#X obj -239 261 noteout 1;
#X obj 197 121 pgmout 1;
#X text 234 94 MIDI INSTRUMENT;
#X obj -239 221 makenote 100 3500;
#X obj 197 67 maxlib/scale 0 470 10 20;
#X floatatom -239 195 5 0 0 0 - - -;
#X floatatom -240 44 5 0 0 0 - - -;
#X obj -240 70 moses 300;
#X msg -14 147 81;
#X msg -45 147 76;
#X msg -76 147 74;
#X msg -108 147 71;
#X msg -150 149 69;
#X msg -180 149 67;
#X msg -205 149 64;
#X msg -241 148 62;
#X obj -225 98 moses 75;
#X obj -241 126 moses 35;
#X obj -80 99 moses 150;
#X obj 82 125 moses 460;
#X obj 48 97 moses 400;
#X msg 20 147 83;
#X msg 53 147 86;
#X msg 82 147 88;
#X msg 136 147 91;
#X obj -180 126 moses 105;
#X obj 20 125 moses 200;
#X obj -45 125 moses 175;
#X obj -108 125 moses 125;
#X text -201 194 PITCH DEPENDING ON Y-COORDINATE OF BALL COLLISION
;
#X text -242 -18 PLAYS SOUND WHEN LINE IS DRAWN ON CANVAS;
#X text 195 8 INSTRUMENT DEPENDING ON X-COORDINATE;
#X connect 1 0 11 0;
#X connect 2 0 9 0;
#X connect 3 0 6 0;
#X connect 8 0 5 0;
#X connect 8 1 5 1;
#X connect 9 0 3 0;
#X connect 10 0 8 0;
#X connect 11 0 12 0;
#X connect 11 0 12 1;
#X connect 12 0 21 0;
#X connect 12 0 21 1;
#X connect 12 0 23 0;
#X connect 12 0 23 1;
#X connect 12 1 25 0;
#X connect 12 1 25 1;
#X connect 13 0 10 0;
#X connect 14 0 10 0;
#X connect 15 0 10 0;
#X connect 16 0 10 0;
#X connect 17 0 10 0;
#X connect 18 0 10 0;
#X connect 19 0 10 0;
#X connect 20 0 10 0;
#X connect 21 0 22 0;
#X connect 21 0 22 1;
#X connect 21 1 30 0;
#X connect 21 1 30 1;
#X connect 22 0 20 0;
#X connect 22 1 19 0;
#X connect 23 0 33 0;
#X connect 23 0 33 1;
#X connect 23 1 32 0;
#X connect 23 1 32 1;
#X connect 24 0 28 0;
#X connect 24 1 29 0;
#X connect 25 0 31 0;
#X connect 25 0 31 1;
#X connect 25 1 24 0;
#X connect 25 1 24 1;
#X connect 26 0 10 0;
#X connect 27 0 10 0;
#X connect 28 0 10 0;
#X connect 29 0 10 0;
#X connect 30 0 18 0;
#X connect 30 1 17 0;
#X connect 31 0 26 0;
#X connect 31 1 27 0;
#X connect 32 0 14 0;
#X connect 32 1 13 0;
#X connect 33 0 16 0;
#X connect 33 1 15 0;
#X restore -65 304 pd drawing_feedback;
#X obj -67 58 routeOSC /mouse /start /stop /soundhandler;
#X obj 569 -25 s ball_collision;
#X obj 694 -32 bng 15 250 50 0 ball_collision empty ball_collision
17 7 0 10 -4034 -1 -1;
#N canvas 69 31 480 396 drum_loop 1;
#X obj -72 98 soundfiler;
#X floatatom -72 122 0 0 0 0 - - -;
#N canvas 0 22 450 300 (subpatch) 0;
#X array array1 423360 float 2;
#X coords 0 1 423360 -1 200 140 1;
#X restore 130 129 graph;
#X obj -70 288 *~;
#X obj -70 240 tabplay~ array1;
#X obj -70 312 dac~;
#X obj -72 48 bng 15 250 50 0 empty empty empty 17 7 0 10 -4160 -1
-262144;
#X obj 21 295 tabplay~ array1;
#X obj 22 274 r triggerloop;
#X obj -69 164 bng 15 250 50 0 empty startdrum empty 17 7 0 10 -159808
-1 -1;
#X obj -69 186 s triggerloop;
#X obj -70 215 r triggerloop;
#X obj 108 318 s triggerloop;
#X obj -72 27 loadbang;
#X msg -44 272 0.6;
#X msg -72 73 read -resize drum2.wav array1;
#X connect 0 0 1 0;
#X connect 3 0 5 0;
#X connect 4 0 3 1;
#X connect 4 0 3 0;
#X connect 6 0 15 0;
#X connect 6 0 9 0;
#X connect 7 0 5 1;
#X connect 7 1 12 0;
#X connect 8 0 7 0;
#X connect 9 0 10 0;
#X connect 11 0 4 0;
#X connect 11 0 14 0;
#X connect 13 0 6 0;
#X connect 14 0 3 1;
#X connect 15 0 0 0;
#X restore -64 330 pd drum_loop;
#X obj 563 -48 routeOSC /collision;
#X msg 544 66 \$1;
#X floatatom 544 95 5 0 0 0 x_coordinate_for_ball_collision - -;
#X msg 579 66 \$2;
#X floatatom 785 95 5 0 0 0 y_coordinate_for_ball_collision - -;
#X obj 564 9 unpack s;
#X obj 563 37 symbol2list;
#X obj 564 -88 cnv 15 300 30 empty empty BALL_COLLISION_SOUND 20 12
0 14 -4034 -66577 0;
#X obj -65 -85 cnv 15 300 30 empty empty DRAW_LINE_SOUND_FEEDBACK 20
12 0 14 -4032 -66577 0;
#X text 244 -88 RECEIVES MESSAGE FROM PYTHON FOR LIVE FEEDBACK;
#X text 244 -73 GENERATES MIDI NOTES FROM DRAWN LINES;
#X text 870 -73 GENERATES SOUND WHEN BALL COLLIDES;
#X obj -67 238 cnv 15 300 30 empty empty SUBPATCHES_AND_IMPORTS 20
12 0 14 -4160 -262144 0;
#N canvas 410 128 741 386 ball_collision_sound 1;
#X obj -45 -110 bng 15 250 50 0 empty ball_collision empty 17 7 0 10
-4034 -1 -1;
#X floatatom -316 96 5 0 0 0 - - -;
#X obj -316 155 noteout 2;
#X text -328 -114 RECEIVES Y COORDINATE FROM BALL COLLISION;
#X text 197 43 MIDI NOTE INSTRUMENT;
#X floatatom 135 18 5 0 0 0 - - -;
#X obj 135 44 pgmout 2;
#X obj -331 -148 cnv 15 300 30 empty empty BALL_COLLISION_SOUND 20
12 0 14 -4034 -66577 0;
#X obj -317 -82 r collision_pitch;
#X obj 136 -57 r collision_instrument;
#X floatatom 135 -4 5 0 0 0 - - -;
#X floatatom -317 -55 5 0 0 0 - - -;
#X msg 140 132 10 11 12 13 74 79 90;
#X text 136 108 NICE INSTRUMENT VALUES;
#X obj -317 -29 moses 300;
#X obj -316 129 makenote 100 2500;
#X msg -91 48 81;
#X msg -122 48 76;
#X msg -153 48 74;
#X msg -185 48 71;
#X msg -227 50 69;
#X msg -257 50 67;
#X msg -282 50 64;
#X msg -318 49 62;
#X obj -302 -1 moses 75;
#X obj -318 27 moses 35;
#X obj -157 0 moses 150;
#X obj 5 26 moses 460;
#X obj -29 -2 moses 400;
#X msg -57 48 83;
#X msg -24 48 86;
#X msg 5 48 88;
#X msg 59 48 91;
#X obj -257 27 moses 105;
#X obj -57 26 moses 200;
#X obj -122 26 moses 175;
#X obj -185 26 moses 125;
#X obj 136 -30 maxlib/scale 0 470 11 13;
#X text 130 -105 INSTRUMENT FOR BALL COLLISION SOUNDS;
#X text 130 -87 DEPENDING ON X-COORDINATE OF BALL COLLISION;
#X text -278 95 PITCH DEPENDING ON Y-COORDINATE OF BALL COLLISION;
#X connect 1 0 15 0;
#X connect 5 0 6 0;
#X connect 8 0 11 0;
#X connect 9 0 37 0;
#X connect 10 0 5 0;
#X connect 11 0 14 0;
#X connect 11 0 14 1;
#X connect 14 0 24 0;
#X connect 14 0 24 1;
#X connect 14 0 26 0;
#X connect 14 0 26 1;
#X connect 14 1 28 0;
#X connect 14 1 28 1;
#X connect 15 0 2 0;
#X connect 15 1 2 1;
#X connect 16 0 1 0;
#X connect 17 0 1 0;
#X connect 18 0 1 0;
#X connect 19 0 1 0;
#X connect 20 0 1 0;
#X connect 21 0 1 0;
#X connect 22 0 1 0;
#X connect 23 0 1 0;
#X connect 24 0 25 0;
#X connect 24 0 25 1;
#X connect 24 1 33 0;
#X connect 24 1 33 1;
#X connect 25 0 23 0;
#X connect 25 1 22 0;
#X connect 26 0 36 0;
#X connect 26 0 36 1;
#X connect 26 1 35 0;
#X connect 26 1 35 1;
#X connect 27 0 31 0;
#X connect 27 1 32 0;
#X connect 28 0 34 0;
#X connect 28 0 34 1;
#X connect 28 1 27 0;
#X connect 28 1 27 1;
#X connect 29 0 1 0;
#X connect 30 0 1 0;
#X connect 31 0 1 0;
#X connect 32 0 1 0;
#X connect 33 0 21 0;
#X connect 33 1 20 0;
#X connect 34 0 29 0;
#X connect 34 1 30 0;
#X connect 35 0 17 0;
#X connect 35 1 16 0;
#X connect 36 0 19 0;
#X connect 36 1 18 0;
#X connect 37 0 10 0;
#X restore 63 303 pd ball_collision_sound;
#X text 870 -88 RECEIVES MESSAGE FROM PYTHON;
#X obj 786 121 s collision_pitch;
#X obj 544 121 s collision_instrument;
#X obj 122 152 bng 15 250 50 0 empty empty empty 17 7 0 10 -262144
-1 -1;
#X obj 192 153 bng 15 250 50 0 empty empty empty 17 7 0 10 -262144
-1 -1;
#X text 140 151 DRUM ON;
#X text 211 152 DRUM OFF;
#X obj 569 183 cnv 15 300 30 empty empty LINE_BALL_COLLISION 20 12
0 14 -159808 -262144 0;
#X obj 575 231 routeOSC /linecollision;
#N canvas 0 22 697 516 line_collision_soumd 0;
#X msg 31 109 0;
#X obj 32 178 counter;
#X floatatom 32 212 5 0 0 0 - - -;
#X obj 76 279 bng 15 250 50 0 empty empty empty 17 7 0 10 -262144 -1
-1;
#X obj 56 279 bng 15 250 50 0 empty empty empty 17 7 0 10 -262144 -1
-1;
#X obj 37 279 bng 15 250 50 0 empty empty empty 17 7 0 10 -262144 -1
-1;
#X obj 115 278 bng 15 250 50 0 empty empty empty 17 7 0 10 -262144
-1 -1;
#X obj 95 278 bng 15 250 50 0 empty empty empty 17 7 0 10 -262144 -1
-1;
#X floatatom 82 108 5 0 0 0 - - -;
#X text 161 422 DURATION OF TONE;
#X floatatom 163 404 5 0 0 0 - - -;
#X floatatom 15 338 5 0 0 3 - - -;
#X floatatom 60 337 5 0 0 3 - - -;
#X floatatom 105 337 5 0 0 3 - - -;
#X floatatom 143 337 5 0 0 3 - - -;
#X obj 32 247 sel 0 1 2 3 4 5;
#X floatatom 340 192 5 0 0 0 - - -;
#X obj 36 462 noteout 4;
#X obj 338 214 pgmout 4;
#X obj -17 6 cnv 15 300 30 empty empty LINE_BALL_COLLISION 20 12 0
14 -159808 -262144 0;
#X msg 425 155 13;
#X msg 426 214 47;
#X obj 468 239 bng 15 250 50 0 empty instr_4 instrument_4 17 7 0 10
-204786 -1 -1;
#X obj 468 214 bng 15 250 50 0 empty instr_3 instrument_3 17 7 0 10
-204800 -1 -1;
#X obj 467 183 bng 15 250 50 0 empty instr_2 instrument_2 17 7 0 10
-203904 -1 -1;
#X obj 467 155 bng 15 250 50 0 empty instr_1 instrument_1 17 7 0 10
-232576 -1 -1;
#X obj 143 277 bng 15 250 50 0 stop_arpeggio empty stops_arpeggio 17
7 0 10 -257985 -1 -1;
#X obj 82 88 bng 15 250 50 0 empty empty empty 17 7 0 10 -262144 -1
-1;
#X obj 30 419 makenote 127 500;
#X obj 31 88 bng 15 250 50 0 empty stop_arpeggio empty 17 7 0 10 -257985
-1 -1;
#X obj 566 169 bng 15 250 50 0 empty empty empty 17 7 0 10 -262144
-1 -1;
#X obj 566 147 loadbang;
#X msg 426 183 12;
#X msg 18 313 67;
#X msg 61 312 71;
#X msg 143 313 74;
#X msg 106 314 69;
#X msg 426 239 11;
#X obj 31 136 metro 200;
#X obj -4 121 bng 15 250 50 0 empty start_arpeggio empty 17 7 0 10
-159808 -1 -1;
#X text -13 44 PLAYS ARPEGGIO WHEN BALL COLLIDES WITH LINE;
#X text 421 118 CHANGE INSTRUMENT;
#X obj 215 336 + 12;
#X obj 261 337 + 24;
#X text 210 311 ADD MORE OCTAVES HERE?;
#X connect 0 0 38 0;
#X connect 1 0 2 0;
#X connect 2 0 15 0;
#X connect 3 0 36 0;
#X connect 4 0 34 0;
#X connect 5 0 33 0;
#X connect 6 0 34 0;
#X connect 7 0 35 0;
#X connect 8 0 38 1;
#X connect 10 0 28 2;
#X connect 11 0 28 0;
#X connect 12 0 28 0;
#X connect 13 0 28 0;
#X connect 14 0 28 0;
#X connect 15 1 5 0;
#X connect 15 2 4 0;
#X connect 15 3 3 0;
#X connect 15 4 7 0;
#X connect 15 5 6 0;
#X connect 15 6 26 0;
#X connect 16 0 18 0;
#X connect 20 0 16 0;
#X connect 21 0 16 0;
#X connect 22 0 37 0;
#X connect 23 0 21 0;
#X connect 24 0 32 0;
#X connect 25 0 20 0;
#X connect 27 0 8 0;
#X connect 28 0 17 0;
#X connect 28 1 17 1;
#X connect 29 0 0 0;
#X connect 30 0 24 0;
#X connect 31 0 30 0;
#X connect 32 0 16 0;
#X connect 33 0 11 0;
#X connect 34 0 12 0;
#X connect 35 0 14 0;
#X connect 36 0 13 0;
#X connect 37 0 16 0;
#X connect 38 0 1 0;
#X connect 39 0 1 2;
#X connect 39 0 38 0;
#X restore 64 327 pd line_collision_soumd;
#X text 574 257 BANG ARPEGGIO;
#X obj 576 274 bng 15 250 50 0 start_arpeggio empty empty 17 7 0 10
-159808 -1 -1;
#X text 697 257 BANG INSTRUMENT;
#X obj 701 342 bng 15 250 50 0 instr_4 empty instrument_4 17 7 0 10
-204786 -1 -1;
#X obj 701 321 bng 15 250 50 0 instr_3 empty instrument_3 17 7 0 10
-204800 -1 -1;
#X obj 700 301 bng 15 250 50 0 instr_2 empty instrument_2 17 7 0 10
-203904 -1 -1;
#X obj 699 282 bng 15 250 50 0 instr_1 empty instrument_1 17 7 0 10
-232576 -1 -1;
#X connect 1 0 2 0;
#X connect 2 0 10 0;
#X connect 3 0 8 0;
#X connect 3 1 6 0;
#X connect 7 0 1 0;
#X connect 10 0 3 0;
#X connect 10 1 31 0;
#X connect 10 2 32 0;
#X connect 10 3 14 0;
#X connect 10 3 36 0;
#X connect 14 0 11 0;
#X connect 14 0 12 0;
#X connect 14 0 19 0;
#X connect 15 0 16 0;
#X connect 16 0 30 0;
#X connect 17 0 18 0;
#X connect 18 0 29 0;
#X connect 19 0 20 0;
#X connect 20 0 15 0;
#X connect 20 0 17 0;
#X connect 31 0 5 0;
#X connect 32 0 4 0;
#X connect 36 0 39 0;
