#N canvas 323 28 829 458 10;
#X declare -lib mrpeach;
#X obj 18 -43 import mrpeach;
#X obj 176 -44 udpreceive 9000;
#X obj 176 -19 unpackOSC;
#X obj 74 -2 print from-osc;
#X obj 176 27 print route;
#X obj 176 4 routeOSC /muscovaudio;
#X obj 167 112 routeOSC /x /y /leftbutton /rightbutton;
#X obj 171 278 osc~;
#X floatatom 168 152 5 0 0 0 - - -;
#X obj 163 301 dac~;
#X floatatom 251 181 5 0 0 0 - - -;
#X obj 223 216 osc~;
#X obj 259 234 *~;
#X msg 224 182 6;
#X obj 224 152 t b f;
#X obj 171 250 +~;
#X floatatom 411 14 5 0 0 0 - - -;
#X obj 411 37 osc~;
#X obj 434 57 *~;
#X obj 449 -3 t b f;
#X msg 449 23 180;
#X text 344 -36 Invers av y transformation;
#X msg 477 100 \; pd dsp 0;
#X obj 177 55 routeOSC /mouse /play /stop;
#X msg 413 100 \; pd dsp 1;
#X msg 282 134 0;
#N canvas 0 22 488 340 samples 0;
#X obj 48 78 soundfiler;
#X floatatom 48 102 0 0 0 0 - - -;
#X obj 46 146 bng 15 250 50 0 empty empty empty 17 7 0 10 -262144 -1
-1;
#N canvas 0 22 450 300 (subpatch) 0;
#X array array1 71663 float 2;
#X coords 0 1 71663 -1 200 140 1;
#X restore 183 117 graph;
#X msg 61 206 0.6;
#X obj 46 228 *~;
#X obj 46 166 tabplay~ array1;
#X obj 46 252 dac~;
#X msg 48 54 read -resize file.wav array1;
#X obj 47 23 bng 15 250 50 0 empty empty empty 17 7 0 10 -262144 -1
-1;
#X obj 62 184 bng 15 250 50 0 empty empty empty 17 7 0 10 -262144 -1
-1;
#X connect 0 0 1 0;
#X connect 2 0 6 0;
#X connect 4 0 5 1;
#X connect 5 0 7 0;
#X connect 6 0 5 0;
#X connect 8 0 0 0;
#X connect 9 0 8 0;
#X connect 10 0 4 0;
#X restore 169 356 pd samples;
#N canvas 527 58 688 237 midi_from_lines 1;
#X obj -98 33 noteout 1;
#X obj -104 -10 makenote 100 500;
#X obj -130 -45 bng 15 250 50 0 empty empty empty 17 7 0 10 -262144
-1 -1;
#X obj 266 -33 pgmout 1;
#X text -132 -132 GENERATE MIDI NOTES FROM DRAWN LINES;
#X floatatom -104 -31 5 0 0 0 - - -;
#X floatatom 77 -38 5 0 0 0 - - -;
#X msg 266 -57 33;
#X obj 77 -62 r x_coordinate;
#X text 78 -85;
#X obj -106 -84 r y_coordinate;
#X text -106 -104 MIDI NOTE PITCH;
#X text 75 -106 MIDI NOTE LENGTH;
#X obj -106 -57 maxlib/scale 0 470 0 127;
#X connect 1 0 0 0;
#X connect 1 1 0 1;
#X connect 2 0 5 0;
#X connect 5 0 1 0;
#X connect 6 0 1 2;
#X connect 7 0 3 0;
#X connect 8 0 6 0;
#X connect 10 0 13 0;
#X connect 13 0 5 0;
#X restore 170 386 pd midi_from_lines;
#X text 349 308;
#X obj 53 157 s y_coordinate;
#X connect 1 0 2 0;
#X connect 2 0 3 0;
#X connect 2 0 5 0;
#X connect 5 0 4 0;
#X connect 5 0 23 0;
#X connect 6 0 8 0;
#X connect 6 1 14 0;
#X connect 6 1 29 0;
#X connect 7 0 9 0;
#X connect 7 0 9 1;
#X connect 8 0 15 0;
#X connect 10 0 12 1;
#X connect 11 0 12 0;
#X connect 12 0 15 1;
#X connect 13 0 11 0;
#X connect 14 0 13 0;
#X connect 14 1 10 0;
#X connect 15 0 7 0;
#X connect 16 0 17 0;
#X connect 17 0 18 0;
#X connect 19 0 20 0;
#X connect 19 1 16 0;
#X connect 20 0 18 1;
#X connect 23 0 6 0;
#X connect 23 1 24 0;
#X connect 23 2 22 0;
#X connect 23 2 25 0;
#X connect 25 0 8 0;
#X connect 25 0 10 0;
