#N canvas 216 86 607 550 10;
#X declare -lib mrpeach;
#X obj 187 18 import mrpeach;
#X obj 84 42 udpreceive 9000;
#X obj 85 76 unpackOSC;
#X obj 28 155 print from-osc;
#X obj 127 152 print route;
#X obj 164 107 routeOSC /muscovaudio;
#X obj 130 212 routeOSC /x /y /leftbutton /rightbutton;
#X obj 180 440 osc~;
#X floatatom 102 238 5 0 0 0 - - -;
#X obj 170 485 dac~;
#X floatatom 203 296 5 0 0 0 - - -;
#X obj 139 315 osc~;
#X obj 166 368 *~;
#X msg 146 282 6;
#X text 196 372;
#X obj 171 251 t b f;
#X obj 144 400 +~;
#X floatatom 510 357 5 0 0 0 - - -;
#X obj 499 384 osc~;
#X obj 473 429 *~;
#X obj 478 312 t b f;
#X msg 453 343 180;
#X text 504 433 Invers av y transformation;
#X msg 458 199 \; pd dsp 0;
#X obj 265 144 routeOSC /mouse /play /stop;
#X msg 441 212 \; pd dsp 1;
#X msg 40 205 0;
#X connect 1 0 2 0;
#X connect 2 0 3 0;
#X connect 2 0 5 0;
#X connect 5 0 4 0;
#X connect 5 0 24 0;
#X connect 6 0 8 0;
#X connect 6 1 15 0;
#X connect 7 0 9 0;
#X connect 7 0 9 1;
#X connect 8 0 16 0;
#X connect 10 0 12 1;
#X connect 11 0 12 0;
#X connect 12 0 16 1;
#X connect 13 0 11 0;
#X connect 15 0 13 0;
#X connect 15 1 10 0;
#X connect 16 0 7 0;
#X connect 17 0 18 0;
#X connect 18 0 19 0;
#X connect 20 0 21 0;
#X connect 20 1 17 0;
#X connect 21 0 19 1;
#X connect 24 0 6 0;
#X connect 24 1 25 0;
#X connect 24 2 23 0;
#X connect 24 2 26 0;
#X connect 26 0 8 0;
#X connect 26 0 10 0;
